<?xml version="1.0" standalone="no"?>
<!DOCTYPE svg PUBLIC "-//W3C//DTD SVG 20010904//EN"
 "http://www.w3.org/TR/2001/REC-SVG-20010904/DTD/svg10.dtd">
<svg version="1.0" xmlns="http://www.w3.org/2000/svg"
 width="1194.000000pt" height="1188.000000pt" viewBox="0 0 1194.000000 1188.000000"
 preserveAspectRatio="xMidYMid meet">

<g transform="translate(0.000000,1188.000000) scale(0.100000,-0.100000)"
fill="#000000" stroke="none">
<path d="M5586 11194 l-379 -206 -429 84 -429 85 -307 -312 -307 -311 -425
-43 c-235 -24 -430 -49 -437 -55 -6 -6 -98 -177 -203 -381 -105 -203 -197
-375 -203 -381 -7 -6 -185 -84 -397 -174 -212 -90 -388 -166 -392 -169 -5 -4
-43 -199 -86 -433 -43 -235 -80 -429 -82 -431 -73 -59 -651 -550 -654 -556 -3
-4 6 -97 19 -207 14 -109 25 -211 25 -226 l0 -28 -225 0 -225 0 0 -65 0 -65
5520 0 5520 0 0 65 0 65 -225 0 c-124 0 -225 1 -225 3 0 1 11 94 25 207 14
113 25 216 25 230 0 21 -58 74 -329 304 -195 165 -331 287 -334 299 -3 12 -38
205 -79 429 l-73 408 -400 171 -401 170 -200 387 -201 387 -433 45 -433 45
-306 312 -306 311 -427 -85 -427 -85 -378 203 c-207 112 -382 205 -388 206 -5
1 -181 -90 -389 -203z m715 -654 c904 -70 1732 -380 2444 -915 188 -141 303
-243 490 -430 373 -372 648 -753 875 -1210 92 -187 220 -489 220 -521 0 -10
-12 -14 -43 -14 l-42 0 -58 148 c-288 728 -775 1384 -1396 1880 -142 114 -444
316 -606 406 -560 312 -1135 490 -1795 558 -162 16 -668 16 -830 0 -1066 -109
-1990 -533 -2743 -1261 -454 -439 -814 -977 -1051 -1568 l-63 -158 -47 -3
c-25 -2 -46 -1 -46 2 0 12 81 217 130 331 306 703 816 1349 1440 1824 720 548
1600 877 2505 934 125 8 494 6 616 -3z m122 -357 c46 -6 47 -6 47 -42 0 -57
-79 -933 -84 -938 -7 -8 -232 8 -247 17 -11 7 -7 87 24 452 21 244 41 463 44
487 l6 43 81 -6 c44 -4 102 -10 129 -13z m-671 -3 c85 -24 140 -134 142 -285
1 -92 -15 -128 -66 -149 l-30 -13 31 -13 c47 -19 87 -71 95 -121 10 -71 37
-362 34 -364 -4 -3 -202 -25 -227 -25 -16 0 -20 20 -35 185 -23 236 -23 239
-65 243 -28 3 -32 1 -28 -15 9 -29 41 -412 36 -418 -8 -7 -249 -28 -255 -22
-8 8 -97 967 -91 973 8 9 248 31 342 33 44 0 96 -4 117 -9z m1272 -105 c104
-25 191 -47 193 -49 5 -5 -38 -179 -47 -189 -4 -5 -43 1 -86 12 -43 11 -79 19
-80 18 -7 -12 -40 -168 -35 -171 3 -2 39 -11 79 -21 58 -14 72 -21 68 -34 -3
-9 -13 -47 -22 -86 -9 -38 -20 -73 -23 -77 -3 -4 -40 1 -81 12 -41 10 -75 18
-76 17 -9 -11 -43 -192 -37 -197 4 -4 42 -15 83 -25 41 -10 78 -19 81 -21 7
-4 -35 -182 -46 -192 -6 -6 -435 97 -435 104 0 6 230 927 235 942 3 7 13 11
22 8 10 -3 103 -26 207 -51z m-2053 -85 c15 -47 28 -88 28 -92 1 -4 -32 -17
-71 -29 -40 -13 -77 -26 -81 -30 -8 -6 29 -147 42 -161 3 -3 33 2 66 13 84 26
89 25 103 -23 6 -24 18 -64 26 -90 l15 -48 -75 -21 c-40 -12 -74 -27 -74 -32
0 -28 55 -187 64 -187 6 0 46 12 90 25 43 14 80 24 81 23 4 -5 55 -175 55
-185 0 -14 -419 -138 -429 -127 -13 15 -285 923 -278 930 10 11 381 123 397
121 9 -1 25 -35 41 -87z m2743 -152 c22 -11 42 -21 44 -23 1 -1 -9 -86 -23
-190 -14 -103 -25 -195 -23 -203 2 -9 40 62 85 156 45 95 87 172 93 172 13 0
190 -88 190 -95 0 -6 -418 -876 -424 -882 -8 -8 -206 97 -206 110 0 6 14 97
30 201 17 104 29 191 27 192 -2 2 -41 -75 -87 -171 -46 -96 -86 -175 -90 -175
-4 0 -51 21 -104 46 l-96 45 14 27 c7 15 93 194 191 397 98 204 188 391 201
417 l24 47 56 -25 c31 -14 75 -34 98 -46z m-3522 -78 c54 -15 114 -89 182
-223 54 -107 58 -120 54 -167 -4 -43 -12 -58 -44 -91 -21 -22 -65 -55 -96 -72
l-56 -33 89 -164 c49 -91 89 -170 89 -176 0 -14 -210 -126 -224 -121 -12 5
-470 856 -464 862 1 1 66 36 143 77 150 81 222 110 280 117 6 0 27 -4 47 -9z
m-658 -585 l103 -190 224 -163 c123 -89 224 -166 224 -172 0 -5 -40 -43 -89
-84 l-89 -75 -76 56 c-42 31 -97 73 -122 95 -26 21 -49 38 -52 38 -3 0 30 -58
74 -128 43 -71 79 -133 78 -138 0 -5 -43 -45 -96 -88 -74 -62 -97 -76 -104
-65 -5 8 -68 116 -141 240 l-133 226 -172 132 c-95 73 -173 137 -173 141 0 9
175 160 185 160 4 0 47 -32 97 -71 49 -39 91 -69 93 -67 1 1 -21 46 -51 98
-29 52 -52 101 -51 108 2 15 148 142 160 139 4 -1 54 -88 111 -192z m5053 154
c62 -30 144 -108 178 -171 36 -65 40 -151 11 -208 -24 -46 -147 -210 -158
-210 -13 0 -198 151 -198 162 0 5 30 45 66 90 79 97 92 121 74 143 -20 24 -43
18 -82 -22 -52 -56 -353 -436 -362 -458 -4 -12 0 -25 13 -38 18 -18 22 -19 43
-5 13 8 50 49 82 91 51 64 62 74 76 64 53 -38 190 -151 190 -157 0 -10 -139
-158 -170 -180 -60 -42 -177 -42 -261 0 -56 29 -148 118 -174 170 -66 130 -45
183 187 473 139 174 201 242 241 263 68 36 161 33 244 -7z m-2257 -464 c345
-44 653 -138 962 -292 456 -228 858 -582 1139 -1002 38 -57 69 -108 69 -112 0
-5 -1125 -9 -2530 -9 l-2531 0 12 23 c23 44 143 214 217 307 100 126 332 357
462 460 468 372 1032 593 1625 639 149 12 423 5 575 -14z m2952 -226 c68 -83
124 -154 126 -158 3 -9 -135 -131 -147 -131 -3 0 -28 27 -54 60 -27 33 -54 60
-60 60 -7 0 -39 -25 -72 -54 l-60 -53 48 -58 c26 -32 46 -61 45 -66 -2 -4 -34
-33 -73 -64 l-69 -57 -21 24 c-11 13 -34 41 -50 62 l-30 37 -75 -60 c-41 -34
-76 -65 -78 -70 -1 -5 22 -39 52 -76 31 -37 54 -71 51 -75 -7 -11 -141 -120
-148 -120 -7 0 -275 325 -279 338 -2 6 166 150 372 321 276 228 378 307 387
299 7 -5 68 -77 135 -159z m-6423 82 c40 -32 73 -62 72 -67 -1 -5 -24 -37 -51
-70 l-49 -62 64 -51 c35 -28 69 -51 74 -51 5 0 29 25 53 55 23 30 46 55 51 55
18 0 146 -113 140 -124 -3 -6 -24 -32 -45 -57 -21 -26 -38 -51 -38 -56 0 -8
112 -104 145 -125 7 -4 33 21 65 63 30 38 58 69 63 69 5 0 42 -27 83 -61 67
-54 74 -63 61 -78 -7 -9 -71 -87 -141 -174 -81 -100 -132 -155 -139 -150 -7 4
-180 142 -385 306 -340 273 -372 301 -360 318 26 38 253 318 258 318 3 1 38
-26 79 -58z"/>
<path d="M5570 9993 c0 -31 19 -186 23 -190 2 -2 17 1 32 7 l28 11 -6 81 c-4
44 -12 87 -18 94 -17 21 -59 18 -59 -3z"/>
<path d="M4051 9551 c-12 -8 -9 -20 19 -73 74 -141 80 -148 101 -135 28 17 24
61 -13 126 -50 90 -70 105 -107 82z"/>
<path d="M5910 8482 c-35 -72 -70 -134 -79 -136 -9 -3 -76 -13 -150 -23 l-134
-17 108 -102 108 -101 -25 -146 -25 -145 130 68 131 69 123 -66 c68 -36 126
-63 128 -61 3 2 -6 65 -19 139 l-24 134 104 105 105 106 -128 18 c-70 10 -136
20 -147 23 -12 3 -40 51 -80 136 l-63 130 -63 -131z"/>
<path d="M6873 8121 l-41 -88 -83 -12 c-131 -19 -129 -14 -47 -90 l71 -67 -12
-80 c-7 -43 -15 -90 -18 -103 -5 -22 0 -20 85 25 l91 49 91 -49 c74 -39 91
-45 87 -30 -3 11 -11 56 -18 102 l-13 83 69 69 c74 75 74 74 -10 85 -121 15
-112 9 -161 106 -24 49 -46 89 -48 89 -1 0 -21 -40 -43 -89z"/>
<path d="M4980 8109 c-24 -49 -46 -89 -48 -89 -9 0 -150 -21 -171 -26 -23 -5
-20 -10 47 -77 l72 -72 -15 -85 c-8 -47 -15 -90 -15 -97 0 -6 39 9 86 34 l87
46 91 -45 92 -46 -17 97 -18 96 72 72 c48 49 66 74 56 77 -8 3 -53 10 -100 16
l-87 12 -37 84 c-21 47 -41 86 -45 89 -3 2 -26 -36 -50 -86z"/>
<path d="M450 5930 l0 -1310 5520 0 5520 0 0 1310 0 1310 -5520 0 -5520 0 0
-1310z m1629 966 c180 -50 294 -169 337 -353 22 -92 21 -278 -1 -362 -33 -130
-111 -247 -295 -446 -123 -133 -233 -273 -266 -337 -13 -26 -24 -50 -24 -53 0
-3 146 -5 325 -5 l325 0 -6 -37 c-3 -21 -15 -103 -27 -183 l-22 -145 -558 -3
-557 -2 0 74 c0 164 53 352 141 498 63 104 126 187 274 358 215 248 246 303
253 450 5 110 -8 171 -44 207 -22 22 -32 25 -80 21 -33 -3 -61 -12 -74 -23
-25 -23 -47 -98 -56 -193 l-7 -72 -206 2 -206 3 3 65 c13 311 155 491 433 550
61 13 273 4 338 -14z m1234 0 c176 -56 290 -194 351 -426 45 -171 51 -238 50
-535 0 -366 -27 -529 -114 -711 -92 -191 -244 -278 -485 -277 -332 0 -501 177
-572 598 -26 157 -26 655 0 794 65 343 194 513 427 566 80 18 272 13 343 -9z
m6937 -41 c215 -66 343 -238 352 -475 l3 -65 -207 -3 c-115 -1 -208 1 -208 5
0 38 -25 143 -40 172 -22 44 -55 61 -118 61 -85 0 -122 -47 -122 -155 0 -113
35 -152 237 -260 184 -98 259 -148 338 -229 111 -113 155 -227 155 -406 0
-268 -121 -446 -357 -526 -63 -22 -103 -28 -203 -32 -386 -14 -597 147 -639
488 -5 41 -5 78 -2 83 4 4 102 6 217 5 l209 -3 8 -55 c11 -81 49 -155 89 -176
45 -24 125 -24 167 1 50 30 71 77 71 160 -1 130 -52 192 -252 302 -253 139
-366 232 -422 347 -56 117 -68 297 -29 429 72 243 267 363 573 353 77 -3 146
-11 180 -21z m-5498 -105 c23 -78 148 -575 173 -685 6 -24 29 55 110 367 57
218 106 401 110 407 4 7 82 11 227 11 205 0 220 -1 215 -17 -2 -10 -103 -277
-223 -593 l-219 -575 -5 -345 -5 -345 -215 0 -215 0 -5 335 -5 335 -222 593
c-123 326 -223 597 -223 603 0 6 91 8 237 7 l238 -3 27 -95z m1926 -82 l2
-178 -295 0 -295 0 0 -185 0 -185 280 0 280 0 0 -180 0 -180 -280 0 -280 0 0
-215 0 -215 320 0 321 0 -6 -32 c-3 -18 -14 -96 -25 -173 -11 -77 -24 -143
-28 -147 -5 -5 -233 -7 -508 -6 l-499 3 -3 925 c-1 509 0 931 3 938 3 10 110
12 507 10 l503 -3 3 -177z m1079 166 c12 -32 371 -1849 366 -1856 -2 -5 -103
-8 -223 -8 -220 0 -220 0 -225 23 -3 12 -16 92 -30 177 -14 85 -27 165 -30
178 -5 22 -7 22 -170 22 l-164 0 -6 -32 c-3 -18 -18 -107 -33 -198 l-27 -165
-209 -3 c-115 -1 -213 1 -217 5 -6 6 322 1713 356 1851 l5 22 301 0 c269 0
300 -2 306 -16z m1268 -8 c225 -63 336 -205 352 -451 6 -101 -5 -182 -39 -272
-22 -61 -103 -155 -156 -182 l-35 -18 36 -22 c59 -36 114 -106 136 -174 26
-77 39 -223 44 -514 l5 -223 -204 0 c-230 0 -215 -5 -229 85 -4 28 -10 165
-14 305 -7 237 -9 258 -30 298 -28 54 -62 70 -175 78 l-86 7 -2 -384 -3 -384
-210 0 -210 0 -3 925 c-1 509 0 931 3 938 8 22 738 11 820 -12z"/>
<path d="M3062 6557 c-32 -15 -58 -70 -74 -153 -18 -98 -18 -851 0 -949 23
-120 60 -165 138 -165 48 0 88 41 108 111 44 145 48 913 6 1068 -17 65 -58
101 -112 100 -24 0 -53 -5 -66 -12z"/>
<path d="M7431 6381 c-7 -57 -30 -219 -52 -360 -21 -140 -39 -261 -39 -268 0
-10 26 -13 105 -13 58 0 105 4 105 9 0 13 -100 714 -103 726 -2 5 -9 -37 -16
-94z"/>
<path d="M8630 6295 l0 -227 104 4 c87 2 109 6 133 24 52 39 67 79 71 189 3
89 1 105 -20 145 -34 65 -70 82 -189 88 l-99 5 0 -228z"/>
<path d="M450 4473 l0 -68 286 -104 286 -105 78 -88 78 -88 6 -97 c3 -54 8
-208 11 -343 3 -135 8 -288 11 -341 l6 -96 368 -227 368 -228 113 -331 c62
-183 125 -368 141 -413 l29 -81 420 -108 421 -109 250 -346 c138 -190 253
-348 257 -352 4 -5 202 1 440 12 l433 21 348 -261 c191 -143 351 -260 356
-260 5 0 191 65 413 145 l404 145 404 -145 c222 -80 408 -145 414 -145 5 0
162 115 350 256 187 140 346 257 352 260 7 2 206 -5 442 -16 310 -14 431 -17
436 -9 3 6 118 165 254 353 l248 342 422 109 421 109 138 405 c76 223 142 411
147 416 4 6 171 111 372 235 l364 225 6 200 c4 110 10 305 13 434 l7 234 70
82 70 81 294 114 293 114 0 68 0 68 -5520 0 -5520 0 0 -67z m1311 -218 c301
-759 822 -1443 1480 -1942 564 -428 1257 -729 1949 -847 440 -75 938 -86 1364
-30 978 128 1858 551 2577 1241 460 442 879 1084 1089 1671 l23 62 43 0 c33 0
44 -4 44 -16 0 -29 -111 -298 -194 -469 -310 -641 -746 -1182 -1321 -1639
-128 -102 -403 -286 -559 -376 -580 -332 -1249 -536 -1939 -591 -191 -15 -674
-6 -857 15 -1331 158 -2495 849 -3270 1941 -189 266 -396 649 -513 950 -79
203 -77 187 -22 183 l46 -3 60 -150z m6739 145 c0 -14 -138 -216 -206 -301
-413 -519 -974 -881 -1606 -1038 -843 -210 -1726 -43 -2428 459 -289 206 -548
474 -751 777 -38 56 -69 105 -69 108 0 3 1139 5 2530 5 1652 0 2530 -3 2530
-10z m254 -442 c66 -53 74 -64 63 -77 -7 -9 -32 -39 -55 -67 l-41 -51 64 -51
c35 -29 69 -52 74 -52 5 0 29 25 53 55 23 30 46 55 49 55 6 0 120 -88 142
-109 4 -4 -12 -33 -38 -64 -25 -31 -45 -60 -45 -66 0 -11 149 -136 155 -130 2
2 27 33 55 69 29 36 56 65 61 65 5 0 42 -26 84 -59 73 -57 74 -59 57 -80 -145
-183 -267 -326 -273 -324 -18 6 -759 612 -757 618 6 14 263 329 269 330 4 0
41 -28 83 -62z m-5334 -113 c62 -77 119 -147 127 -156 12 -15 5 -23 -63 -78
-73 -58 -94 -70 -94 -53 0 4 -22 32 -49 62 l-49 54 -55 -43 c-87 -67 -86 -63
-33 -125 25 -30 46 -58 46 -64 0 -5 -33 -35 -72 -66 l-73 -57 -30 37 c-16 21
-39 49 -50 62 l-21 24 -77 -63 c-42 -34 -77 -65 -77 -69 0 -3 25 -36 55 -73
30 -36 55 -68 55 -70 0 -5 -148 -127 -153 -127 -2 0 -62 71 -132 158 -71 86
-135 164 -142 174 -13 14 24 47 368 327 304 247 385 309 394 299 7 -7 63 -76
125 -153z m304 -331 c50 -42 92 -80 94 -85 2 -5 -22 -57 -54 -116 -33 -63 -49
-101 -38 -92 131 108 175 139 187 132 24 -14 157 -127 157 -132 0 -4 -78 -68
-173 -144 l-172 -137 -120 -250 c-65 -138 -123 -250 -128 -250 -5 0 -49 34
-98 76 l-89 76 74 145 c60 116 69 141 48 121 -182 -164 -214 -189 -230 -176
-9 7 -55 44 -101 82 -79 67 -82 71 -64 86 10 8 106 90 213 182 l195 167 100
195 c55 108 102 196 104 196 1 0 44 -34 95 -76z m4614 -55 c53 -20 235 -221
216 -238 -38 -35 -187 -151 -193 -151 -4 0 -42 43 -85 95 -59 72 -83 95 -101
95 -37 0 -48 -30 -24 -69 22 -37 350 -441 372 -460 25 -20 62 -10 65 19 2 18
-15 48 -63 107 -36 46 -65 85 -65 87 0 11 203 167 209 159 3 -5 27 -36 53 -69
73 -95 93 -140 93 -209 -1 -109 -78 -217 -204 -284 -121 -64 -197 -53 -301 46
-84 78 -351 408 -380 467 -45 94 -13 220 79 306 108 101 227 137 329 99z
m-3851 -476 c118 -72 159 -141 133 -225 -15 -54 -93 -209 -132 -265 -57 -84
-136 -96 -257 -38 -41 20 -75 34 -76 33 -1 -2 -41 -78 -89 -170 -48 -93 -92
-168 -98 -168 -9 0 -213 104 -226 115 -2 2 434 835 454 867 6 9 180 -81 291
-149z m3405 -328 c115 -237 210 -434 211 -440 2 -10 -191 -108 -203 -103 -5 2
-71 72 -149 156 -78 84 -141 150 -141 147 0 -3 38 -82 85 -175 47 -93 85 -176
85 -183 0 -12 -164 -97 -188 -97 -9 0 -433 858 -432 875 1 6 44 30 96 55 l95
44 150 -150 c82 -83 149 -150 149 -149 0 1 -38 82 -85 179 -47 97 -85 179 -85
182 0 8 184 93 194 91 5 -2 103 -196 218 -432z m-2840 110 c116 -34 195 -63
193 -69 -2 -6 -16 -50 -30 -98 -16 -55 -30 -86 -38 -83 -54 18 -150 45 -152
43 -12 -15 -46 -161 -39 -167 5 -4 29 -13 53 -20 25 -7 55 -17 67 -21 l22 -9
-25 -83 c-14 -46 -28 -86 -32 -90 -3 -4 -37 2 -75 13 -38 11 -72 17 -76 12 -8
-8 -62 -185 -57 -188 1 -1 38 -12 82 -24 44 -13 83 -26 87 -30 7 -6 -38 -170
-52 -184 -6 -6 -415 107 -429 119 -2 2 254 875 274 933 3 7 11 11 18 9 6 -3
100 -31 209 -63z m1976 -67 c12 -51 22 -96 22 -99 0 -4 -33 -15 -72 -24 -40
-10 -76 -20 -80 -24 -6 -5 27 -160 36 -168 1 -1 35 6 76 17 41 11 75 18 76 17
5 -6 44 -156 44 -169 0 -16 -21 -26 -106 -48 l-42 -10 25 -98 c14 -53 26 -98
27 -99 1 -1 35 7 76 17 111 29 105 33 130 -71 13 -51 19 -94 14 -98 -11 -10
-423 -116 -428 -110 -3 5 -233 905 -238 933 -3 18 19 26 197 72 110 29 205 53
211 53 5 1 20 -41 32 -91z m-1346 -53 c59 -8 125 -19 148 -26 50 -15 105 -73
119 -126 23 -83 4 -251 -34 -293 -10 -11 -33 -24 -52 -31 l-35 -11 35 -24 c63
-43 68 -73 50 -296 -9 -106 -17 -195 -19 -197 -5 -5 -233 15 -240 21 -3 3 3
96 12 206 18 213 16 232 -27 232 -22 0 -24 -13 -39 -200 -6 -74 -13 -157 -16
-184 l-6 -49 -112 7 c-61 4 -120 9 -131 12 -20 5 -20 8 22 482 23 262 42 483
43 490 0 15 89 11 282 -13z m732 -17 c11 -71 87 -929 84 -940 -3 -9 -47 -17
-129 -24 -68 -6 -126 -10 -128 -8 -4 3 -90 913 -91 955 0 27 1 27 103 36 166
16 155 17 161 -19z"/>
<path d="M6743 4186 c3 -11 11 -56 18 -99 l12 -79 -72 -72 -72 -73 99 -12 99
-13 43 -89 c24 -49 47 -89 50 -89 3 1 24 41 46 89 l42 88 96 13 c53 8 96 16
96 19 0 3 -30 36 -67 73 l-67 67 12 78 c7 43 15 88 18 100 6 21 -2 18 -85 -25
l-90 -47 -91 46 c-82 42 -91 44 -87 25z"/>
<path d="M5116 4150 l-89 -48 -84 45 c-46 25 -86 43 -89 40 -3 -2 2 -47 11
-98 l17 -94 -73 -67 c-40 -37 -71 -69 -69 -71 3 -2 45 -9 95 -16 49 -7 93 -15
97 -17 5 -3 28 -44 52 -92 l44 -87 45 91 46 91 95 13 c53 7 96 15 96 19 0 3
-31 37 -69 76 l-69 70 18 98 c9 53 17 97 16 97 0 -1 -41 -23 -90 -50z"/>
<path d="M5720 4024 c0 -10 10 -74 22 -142 l22 -125 -105 -102 -105 -102 145
-22 c80 -12 146 -22 147 -24 1 -1 30 -60 64 -132 l62 -130 64 130 c36 71 66
131 68 133 2 2 64 12 138 23 73 11 136 20 141 22 4 1 -39 49 -96 105 l-104
104 24 135 c13 75 22 138 20 140 -2 2 -61 -26 -130 -62 l-125 -66 -126 67
c-103 53 -126 62 -126 48z"/>
<path d="M4296 2753 c-57 -112 -58 -126 -6 -121 19 2 33 20 67 83 47 87 50
110 16 132 -21 14 -23 11 -77 -94z"/>
<path d="M5645 2403 c-3 -38 -9 -85 -12 -107 -5 -38 -5 -39 23 -32 43 11 46
18 52 100 5 80 -4 106 -38 106 -15 0 -19 -12 -25 -67z"/>
</g>
</svg>
